<svg xmlns="http://www.w3.org/2000/svg" version="1.0" width="200mm" height="200mm" viewBox="-30 -30 200 200">

// crosses
<line fill="none" stroke="Red" stroke-width="0.5" x1="50" y1="0" x2="50" y2="100"></line>
<line fill="none" stroke="Red" stroke-width="0.5" x1="0" y1="50" x2="100" y2="50"></line>

// top straight
<line fill="none" stroke="Red" stroke-width="0.1" x1="0" y1="0" x2="100" y2="0"></line>
<line fill="none" stroke="Red" stroke-width="0.1" x1="0" y1="-2.5" x2="100" y2="-2.5"></line>
<line fill="none" stroke="Red" stroke-width="0.1" x1="0" y1="-25" x2="100" y2="-25"></line>

// top in
<path fill="none" stroke="DarkBlue" stroke-width="0.1" d="M 0,0 C 20,0 50,-10 40,10"></path>
<path fill ="none" stroke="Green" stroke-width="0.1" d="M 40,10 C 30,30 70,30 60,10"></path>
<path fill="none" stroke="Black" stroke-width="0.1" d="M 60,10 C 50,-10 80,0 100,0"></path>

// top out
<path fill="none" stroke="DarkBlue" stroke-width="0.1" d="M 0,0    C 20,0   50,10  40,-10"></path>
<path fill ="none" stroke="Green" stroke-width="0.5"   d="M 40,-10 C 30,-30 70,-30 60,-10"></path>
<path fill="none" stroke="Black" stroke-width="0.1"    d="M 60,-10 C 50,10 80,0   100,0"></path>

// right straight
<line fill="none" stroke="Red" stroke-width="0.5" x2="100" y2="100" x1="100" y1="0"></line>

// right out
<path fill="none" stroke="DarkBlue" stroke-width="1" d="M 100,0 C 100,20 90,50 110,40"></path>
<path fill ="none" stroke="Black" stroke-width="1" d="M 110,40 C 130,30 130,70 110,60"></path>
<path fill="none" stroke="Black" stroke-width="1" d="M 110,60 C 90,50 100,80 100,100"></path>

// right in
<path fill="none" stroke="DarkBlue" stroke-width="1" d="M 100,0 C 100,20 110,50 90,40"></path>
<path fill ="none" stroke="Black" stroke-width="1" d="M 90,40 C 70,30 70,70 90,60"></path>
<path fill="none" stroke="Black" stroke-width="1" d="M 90,60 C 110,50 100,80 100,100"></path>

// left straight
<line fill="none" stroke="Red" stroke-width="0.5" x1="00" y1="0" x2="0" y2="100"></line>

// left in
<path fill="none" stroke="DarkBlue" stroke-width="1" d="M 0,0 C 0,20 -10,50 10,40"></path>
<path fill ="none" stroke="Blue" stroke-width="1" d="M 10,40 C 30,30 30,70 10,60"></path>
<path fill="none" stroke="Black" stroke-width="1" d="M 10,60 C -10,50 0,80 0,100"></path>

// left out
<path fill="none" stroke="DarkBlue" stroke-width="1" d="M 0,0 C 0,20 10,50 -10,40"></path>
<path fill ="none" stroke="Blue" stroke-width="1" d="M -10,40 C -30,30 -30,70 -10,60"></path>
<path fill="none" stroke="Black" stroke-width="1" d="M -10,60 C 10,50 0,80 0,100"></path>

// bottom straight
<line fill="none" stroke="Red" stroke-width="0.5" x1="00" y1="100" x2="100" y2="100"></line>

// bottom in
<path fill="none" stroke="DarkBlue" stroke-width="1" d="M 0,100 C 20,100 50,110 40,90"></path>
<path fill ="none" stroke="Red" stroke-width="1"     d="M 40,90 C 30,70  70,70  60,90"></path>
<path fill="none" stroke="Green" stroke-width="1"    d="M 60,90 C 50,110 90,100 100,100"></path>

// bottom out
<path fill="none" stroke="DarkBlue" stroke-width="1" d="M 0,100  C 20,100 50,90  40,110"></path>
<path fill ="none" stroke="Red" stroke-width="1"     d="M 40,110 C 30,130 70,130 60,110"></path>
<path fill="none" stroke="Green" stroke-width="1"    d="M 60,110 C 50,90 90,100 100,100"></path>

</svg>