<!-- generated with jigsaw.go -->
<svg xmlns="http://www.w3.org/2000/svg" version="1.0" width="200mm" height="200mm" viewBox="-30 -30 200 200">
<!-- width 127.5, height 105.0 -->

<path fill="Blue" style="fill-opacity: .05;" stroke="Red" stroke-width="0" d="
	M 0.0,0.0
	C 20.0,0.0 50.0,-10.0 39.0,10.0
	C 29.0,30.0 70.0,32.0 61.0,10.0
	C 51.0,-10.0 80.0,0.0 100.0,0.0

	C 100.0,20.0 90.0,50.0 110.0,41.0
	C 130.0,31.0 128.0,70.0 110.0,59.0
	C 90.0,49.0 100.0,80.0 100.0,100.0

	C 80.0,100.0 50.0,110.0 61.0,90.0
	C 71.0,70.0 30.0,68.0 39.0,90.0
	C 49.0,110.0 20.0,100.0 0.0,100.0

	C 0.0,80.0 -10.0,50.0 10.0,61.0
	C 30.0,71.0 32.0,30.0 10.0,39.0
	C -10.0,49.0 0.0,20.0 0.0,0.0

"></path></svg>
