<svg xmlns="http://www.w3.org/2000/svg" version="1.0" width="200mm" height="200mm" viewBox="-10 -10 200 200">


<line fill="none" stroke="Red" stroke-width="0.5" x1="0" y1="0" x2="100" y2="0"></line>
<line fill="none" stroke="Red" stroke-width="0.5" x2="100" y2="100" x1="100" y1="0"></line>
<line fill="none" stroke="Red" stroke-width="0.5" x1="00" y1="0" x2="0" y2="100"></line>
<line fill="none" stroke="Red" stroke-width="0.5" x1="00" y1="100" x2="100" y2="100"></line>

<line fill="none" stroke="Red" stroke-width="0.5" x1="50" y1="0" x2="50" y2="100"></line>
<line fill="none" stroke="Red" stroke-width="0.5" x1="0" y1="50" x2="100" y2="50"></line>

<path fill="none" stroke="DarkBlue" stroke-width="1" d="M 0,0 C 20,0 50,-10 40,10"></path>
<path fill ="none" stroke="Green" stroke-width="1" d="M 40,10 C 30,30 70,30 60,10"></path>
<path fill="none" stroke="Black" stroke-width="1" d="M 60,10 C 50,-10 80,0 100,0"></path>



<path fill="none" stroke="DarkBlue" stroke-width="1" d="M 0,100 C 20,100 50,110 40,90"></path>
<path fill ="none" stroke="Red" stroke-width="1" d="M 40,90 C 30,70 70,70 60,90"></path>
<path fill="none" stroke="Black" stroke-width="1" d="M 60,90 C 50,110 80,100 100,100"></path>


<path fill="none" stroke="DarkBlue" stroke-width="1" d="M 100,0 C 100,20 110,50 90,40"></path>
<path fill ="none" stroke="Black" stroke-width="1" d="M 90,40 C 70,30 70,70 90,60"></path>
<path fill="none" stroke="Black" stroke-width="1" d="M 90,60 C 110,50 100,80 100,100"></path>

<path fill="none" stroke="DarkBlue" stroke-width="1" d="M 0,0 C 0,20 -10,50 10,40"></path>
<path fill ="none" stroke="Blue" stroke-width="1" d="M 10,40 C 30,30 30,70 10,60"></path>
<path fill="none" stroke="Black" stroke-width="1" d="M 10,60 C -10,50 0,80 0,100"></path>


</svg>