<svg xmlns="http://www.w3.org/2000/svg" version="1.0" width="200mm" height="200mm" viewBox="-30 -30 200 200">

<path fill="Blue" stroke="Red" stroke-width="0" d="
    M 0,0
    C 20,0     50,-10    40,10
    C 30,30    70,30     60,10
    C 50,-10   80,0      100,0

    C 100,20   110,50    90,40
    C 70,30    70,70     90,60
    C 110,50   100,80    100,100

    C 80,100   50,110    60,90
    C 70,70    30,70     40,90
    C 50,110   20,100    0,100

    C 0,80     -10,50    10,60
    C 30,70    30,30     10,40
    C -10,50   0,20      0,0
"></path>

</svg>