<!-- Outie 1 -->
<!-- generated with jigsaw.go -->
<svg xmlns="http://www.w3.org/2000/svg" version="1.0" width="200mm" height="200mm" viewBox="-30 -30 200 200">
<path fill="Blue" stroke="Red" stroke-width="0" d="
	M 0,0 
	C 20.0,0.0 50.0,10.0 40.0,-10.0
	C 30.0,-30.0 70.0,-30.0 60.0,-10.0
	C 50.0,10.0 80.0,0.0 100.0,0.0

	C 100.0,20.0 90.0,50.0 110.0,40.0
	C 130.0,30.0 130.0,70.0 110.0,60.0
	C 90.0,50.0 100.0,80.0 100.0,100.0

	C 80.0,100.0 50.0,90.0 60.0,110.0
	C 70.0,130.0 30.0,130.0 40.0,110.0
	C 50.0,90.0 20.0,100.0 0.0,100.0

	C 0.0,80.0 10.0,50.0 -10.0,60.0
	C -30.0,70.0 -30.0,30.0 -10.0,40.0
	C 10.0,50.0 0.0,20.0 0.0,0.0

"></path>
</svg>